<?xml version="1.0" encoding="UTF-8" standalone="no"?>
<svg
   xmlns:dc="http://purl.org/dc/elements/1.1/"
   xmlns:cc="http://creativecommons.org/ns#"
   xmlns:rdf="http://www.w3.org/1999/02/22-rdf-syntax-ns#"
   xmlns:svg="http://www.w3.org/2000/svg"
   xmlns="http://www.w3.org/2000/svg"
   xmlns:sodipodi="http://sodipodi.sourceforge.net/DTD/sodipodi-0.dtd"
   xmlns:inkscape="http://www.inkscape.org/namespaces/inkscape"
   height="1500"
   width="1500"
   id="svg2"
   version="1.1"
   inkscape:version="0.48.5 r10040"
   sodipodi:docname="pencil.svg">
  <metadata
     id="metadata10">
    <rdf:RDF>
      <cc:Work
         rdf:about="">
        <dc:format>image/svg+xml</dc:format>
        <dc:type
           rdf:resource="http://purl.org/dc/dcmitype/StillImage" />
      </cc:Work>
    </rdf:RDF>
  </metadata>
  <defs
     id="defs8" />
  <sodipodi:namedview
     pagecolor="#ffffff"
     bordercolor="#666666"
     borderopacity="1"
     objecttolerance="10"
     gridtolerance="10"
     guidetolerance="10"
     inkscape:pageopacity="0"
     inkscape:pageshadow="2"
     inkscape:window-width="1600"
     inkscape:window-height="837"
     id="namedview6"
     showgrid="false"
     inkscape:zoom="0.236"
     inkscape:cx="500"
     inkscape:cy="500"
     inkscape:window-x="-8"
     inkscape:window-y="-8"
     inkscape:window-maximized="1"
     inkscape:current-layer="svg2" />
  <path
     d="m 250,1140.629 q 0,-3.906 0.977,-7.812 0.977,-3.906 0.977,-7.812 0,-3.906 0.977,-7.812 0.977,-3.906 0.977,-5.859 l 0,-1.953 74.214,-267.561 q 9.765,-31.248 31.248,-52.731 l 324.198,-324.198 0,-1.953 1.953,-1.953 150.381,-152.334 q 60.543,-58.59 146.475,-58.59 105.462,0 185.535,80.073 74.214,74.214 81.05,170.888 6.836,96.674 -57.614,161.123 l -476.532,480.438 q -23.436,23.436 -54.684,31.248 l -263.655,70.308 -2.929,0.977 q -2.929,0.977 -6.836,1.953 -3.907,0.976 -8.789,0.977 -4.882,10e-4 -9.765,0.977 -4.883,0.976 -8.789,0.977 -44.919,0 -77.144,-32.224 -32.225,-32.224 -32.224,-77.144 z m 62.496,0 q 0,19.53 13.671,33.201 13.671,13.671 33.201,13.671 5.859,0 21.483,-3.906 l 115.227,-31.248 q 3.906,-58.59 -42.966,-105.462 -44.919,-44.919 -105.462,-42.966 l -31.248,119.133 q -3.906,13.671 -3.906,17.577 z m 44.919,-167.958 q 66.402,1.953 117.18,52.731 50.778,50.778 52.731,119.133 l 115.227,-29.295 11.718,-5.859 q 41.013,-46.872 33.201,-115.227 -7.812,-68.355 -60.543,-121.086 -50.778,-48.825 -115.227,-58.59 -64.449,-9.765 -111.321,23.436 -7.812,9.765 -11.718,21.483 z M 488.266,748.076 q 44.919,1.953 89.838,19.53 L 873.007,472.703 Q 785.122,451.22 728.485,505.904 z m 119.133,35.154 q 37.107,19.53 64.449,44.919 21.483,21.483 41.013,54.684 l 296.856,-298.809 q -15.624,-31.248 -39.06,-54.684 -29.295,-29.295 -66.402,-44.919 z m 121.086,128.898 q 17.577,41.013 21.483,82.026 l 0,23.436 242.172,-244.125 0,-1.953 q 60.543,-60.543 31.248,-156.24 z m 101.556,-507.78 q 105.462,0 185.535,80.073 70.308,72.261 78.12,166.005 l 0,21.483 52.731,-54.684 q 44.919,-44.919 41.013,-111.321 -5.859,-74.214 -62.496,-130.851 -62.496,-62.496 -142.569,-62.496 -60.543,0 -101.556,41.013 z"
     id="path4"
     inkscape:connector-curvature="0" />
</svg>
